<svg width="295" height="158" viewBox="0 0 295 158" fill="none" xmlns="http://www.w3.org/2000/svg">
<path d="M2 71.5376L8.98537 67.4628C49.624 43.7569 99.876 43.7569 140.515 67.4628L147.5 71.5376L154.485 75.6124C195.124 99.3183 245.376 99.3183 286.015 75.6124L293 71.5376" stroke="white" stroke-opacity="0.2" stroke-width="2.46923" stroke-linecap="round" stroke-linejoin="round"/>
<path d="M2 56.9875L8.98537 52.9127C49.624 29.2069 99.876 29.2069 140.515 52.9127L147.5 56.9875L154.485 61.0623C195.124 84.7682 245.376 84.7682 286.015 61.0623L293 56.9875" stroke="white" stroke-opacity="0.2" stroke-width="2.46923" stroke-linecap="round" stroke-linejoin="round"/>
<path d="M2 42.4375L8.98537 38.3627C49.624 14.6568 99.876 14.6568 140.515 38.3627L147.5 42.4375L154.485 46.5123C195.124 70.2182 245.376 70.2182 286.015 46.5123L293 42.4375" stroke="white" stroke-opacity="0.2" stroke-width="2.46923" stroke-linecap="round" stroke-linejoin="round"/>
<path d="M2 86.0876L8.98537 82.0128C49.624 58.307 99.876 58.307 140.515 82.0128L147.5 86.0876L154.485 90.1624C195.124 113.868 245.376 113.868 286.015 90.1624L293 86.0876" stroke="white" stroke-opacity="0.2" stroke-width="2.46923" stroke-linecap="round" stroke-linejoin="round"/>
<path d="M2 100.638L8.98537 96.5629C49.624 72.857 99.876 72.857 140.515 96.5629L147.5 100.638L154.485 104.712C195.124 128.418 245.376 128.418 286.015 104.712L293 100.638" stroke="white" stroke-opacity="0.2" stroke-width="2.46923" stroke-linecap="round" stroke-linejoin="round"/>
<path d="M2 115.187L8.98537 111.112C49.624 87.4066 99.876 87.4066 140.515 111.112L147.5 115.187L154.485 119.262C195.124 142.968 245.376 142.968 286.015 119.262L293 115.187" stroke="white" stroke-opacity="0.2" stroke-width="2.46923" stroke-linecap="round" stroke-linejoin="round"/>
</svg>
