<svg width="154" height="106" viewBox="0 0 154 106" fill="none" xmlns="http://www.w3.org/2000/svg">
<g clip-path="url(#clip0_174_3232)">
<path d="M214.823 100.431C196.02 86.5629 187.912 97.1357 169.108 83.2672C150.304 69.3987 158.412 58.8259 139.614 44.9614C120.816 31.0969 112.703 41.6657 93.899 27.7973C75.0954 13.9288 83.2035 3.35595 64.3999 -10.5125C45.5963 -24.381 37.4883 -13.8082 18.6793 -27.6807C-0.129745 -41.5532 7.98372 -52.122 -10.8199 -65.9905" stroke="#A0A3BD" stroke-opacity="0.3" stroke-width="1.11416" stroke-miterlimit="10"/>
<path d="M271.573 22.4048C252.769 8.53629 244.661 19.1091 225.858 5.24062C207.054 -8.62787 215.162 -19.2007 196.364 -33.0652C177.566 -46.9297 169.452 -36.3609 150.649 -50.2294C131.845 -64.0978 139.953 -74.6707 121.149 -88.5392C102.346 -102.408 94.2378 -91.8348 75.4288 -105.707C56.6198 -119.58 64.7332 -130.149 45.9296 -144.017" stroke="#A0A3BD" stroke-opacity="0.3" stroke-width="1.11416" stroke-miterlimit="10"/>
<path d="M222.121 88.8784C203.317 75.0099 195.209 85.5827 176.405 71.7142C157.602 57.8458 165.71 47.2729 146.912 33.4084C128.113 19.5439 120 30.1128 101.196 16.2443C82.3928 2.37577 90.5009 -8.19704 71.6973 -22.0655C52.8937 -35.934 44.7856 -25.3612 25.9766 -39.2337C7.16762 -53.1062 15.2811 -63.675 -3.52251 -77.5435" stroke="#A0A3BD" stroke-opacity="0.3" stroke-width="1.11416" stroke-miterlimit="10"/>
<path d="M247.586 56.3311C228.782 42.4626 220.674 53.0354 201.871 39.1669C183.067 25.2984 191.175 14.7256 172.377 0.861077C153.579 -13.0034 145.465 -2.4346 126.662 -16.3031C107.858 -30.1716 115.966 -40.7444 97.1626 -54.6129C78.359 -68.4814 70.251 -57.9086 51.442 -71.781C32.633 -85.6535 40.7464 -96.2224 21.9428 -110.091" stroke="#A0A3BD" stroke-opacity="0.3" stroke-width="1.11416" stroke-miterlimit="10"/>
<path d="M298.821 -10.4287C280.017 -24.2972 271.909 -13.7244 253.106 -27.5929C234.302 -41.4614 242.41 -52.0342 223.612 -65.8987C204.814 -79.7632 196.7 -69.1944 177.897 -83.0629C159.093 -96.9314 167.201 -107.504 148.397 -121.373C129.594 -135.241 121.486 -124.668 102.677 -138.541C83.8678 -152.413 91.9812 -162.982 73.1776 -176.851" stroke="#A0A3BD" stroke-opacity="0.3" stroke-width="1.11416" stroke-miterlimit="10"/>
<path d="M197.927 123.032C179.123 109.163 171.015 119.736 152.212 105.868C133.408 91.9993 141.516 81.4265 122.718 67.562C103.92 53.6975 95.8061 64.2663 77.0026 50.3978C58.199 36.5293 66.307 25.9565 47.5034 12.088C28.6998 -1.78045 20.5918 8.79237 1.78277 -5.08012C-17.0262 -18.9526 -8.91276 -29.5214 -27.7164 -43.3899" stroke="#A0A3BD" stroke-opacity="0.3" stroke-width="1.11416" stroke-miterlimit="10"/>
<path d="M274.741 16.5193C255.937 2.65079 247.829 13.2236 229.025 -0.644882C210.222 -14.5134 218.33 -25.0862 199.532 -38.9507C180.734 -52.8152 172.62 -42.2464 153.817 -56.1149C135.013 -69.9834 143.121 -80.5562 124.317 -94.4247C105.514 -108.293 97.4057 -97.7203 78.5967 -111.593C59.7877 -125.465 67.9012 -136.034 49.0976 -149.903" stroke="#A0A3BD" stroke-opacity="0.3" stroke-width="1.11416" stroke-miterlimit="10"/>
<path d="M225.289 82.9922C206.485 69.1237 198.377 79.6965 179.574 65.828C160.77 51.9595 168.878 41.3867 150.08 27.5222C131.282 13.6577 123.168 24.2265 104.365 10.358C85.5613 -3.51046 93.6693 -14.0833 74.8657 -27.9518C56.0621 -41.8203 47.9541 -31.2474 29.1451 -45.1199C10.3361 -58.9924 18.4495 -69.5612 -0.354053 -83.4297" stroke="#A0A3BD" stroke-opacity="0.3" stroke-width="1.11416" stroke-miterlimit="10"/>
<path d="M250.753 50.4456C231.95 36.5771 223.842 47.1499 205.038 33.2814C186.235 19.4129 194.343 8.84008 175.544 -5.02442C156.746 -18.8889 148.633 -8.3201 129.829 -22.1886C111.026 -36.0571 119.134 -46.6299 100.33 -60.4984C81.5265 -74.3669 73.4184 -63.7941 54.6094 -77.6665C35.8004 -91.539 43.9139 -102.108 25.1103 -115.976" stroke="#A0A3BD" stroke-opacity="0.3" stroke-width="1.11416" stroke-miterlimit="10"/>
<path d="M201.094 117.146C182.291 103.278 174.183 113.85 155.379 99.9818C136.575 86.1133 144.683 75.5405 125.885 61.676C107.087 47.8115 98.9736 58.3803 80.17 44.5119C61.3664 30.6434 69.4745 20.0705 50.6709 6.20206C31.8673 -7.66643 23.7593 2.90638 4.95025 -10.9661C-13.8587 -24.8386 -5.74528 -35.4074 -24.5489 -49.2759" stroke="#A0A3BD" stroke-opacity="0.3" stroke-width="1.11416" stroke-miterlimit="10"/>
<path d="M284.416 5.09082C265.612 -8.77767 257.504 1.79514 238.701 -12.0733C219.897 -25.9418 228.005 -36.5147 209.207 -50.3792C190.409 -64.2437 182.295 -53.6748 163.492 -67.5433C144.688 -81.4118 152.796 -91.9846 133.993 -105.853C115.189 -119.722 107.081 -109.149 88.272 -123.021C69.463 -136.894 77.5765 -147.463 58.7729 -161.331" stroke="#A0A3BD" stroke-opacity="0.3" stroke-width="1.11416" stroke-miterlimit="10"/>
<path d="M234.964 71.564C216.161 57.6955 208.053 68.2683 189.249 54.3998C170.446 40.5313 178.554 29.9585 159.755 16.094C140.957 2.22949 132.844 12.7983 114.04 -1.07018C95.2365 -14.9387 103.345 -25.5115 84.541 -39.38C65.7374 -53.2485 57.6294 -42.6757 38.8204 -56.5481C20.0114 -70.4206 28.1248 -80.9894 9.32122 -94.8579" stroke="#A0A3BD" stroke-opacity="0.3" stroke-width="1.11416" stroke-miterlimit="10"/>
<path d="M260.222 39.2441C241.418 25.3756 233.31 35.9485 214.506 22.08C195.703 8.21148 203.811 -2.36134 185.013 -16.2258C166.215 -30.0903 158.101 -19.5215 139.297 -33.39C120.494 -47.2585 128.602 -57.8313 109.798 -71.6998C90.9948 -85.5683 82.8867 -74.9955 64.0777 -88.868C45.2687 -102.74 53.3822 -113.309 34.5786 -127.178" stroke="#A0A3BD" stroke-opacity="0.3" stroke-width="1.11416" stroke-miterlimit="10"/>
<path d="M210.77 105.718C191.966 91.849 183.858 102.422 165.054 88.5534C146.251 74.6849 154.359 64.1121 135.561 50.2476C116.762 36.383 108.649 46.9519 89.8453 33.0834C71.0417 19.2149 79.1498 8.64208 60.3462 -5.22641C41.5426 -19.0949 33.4345 -8.52209 14.6255 -22.3946C-4.18347 -36.2671 3.92999 -46.8359 -14.8736 -60.7044" stroke="#A0A3BD" stroke-opacity="0.3" stroke-width="1.11416" stroke-miterlimit="10"/>
<path d="M267.519 27.6917C248.715 13.8232 240.607 24.396 221.804 10.5275C203 -3.34101 211.108 -13.9138 192.31 -27.7783C173.512 -41.6428 165.398 -31.074 146.595 -44.9425C127.791 -58.811 135.899 -69.3838 117.096 -83.2523C98.2921 -97.1208 90.1841 -86.548 71.3751 -100.42C52.5661 -114.293 60.6795 -124.862 41.8759 -138.73" stroke="#A0A3BD" stroke-opacity="0.3" stroke-width="1.11416" stroke-miterlimit="10"/>
<path d="M218.067 94.1648C199.264 80.2963 191.156 90.8691 172.352 77.0006C153.549 63.1321 161.657 52.5593 142.858 38.6948C124.06 24.8303 115.947 35.3991 97.1432 21.5307C78.3396 7.66216 86.4476 -2.91065 67.6441 -16.7791C48.8405 -30.6476 40.7324 -20.0748 21.9234 -33.9473C3.1144 -47.8198 11.2279 -58.3886 -7.57573 -72.2571" stroke="#A0A3BD" stroke-opacity="0.3" stroke-width="1.11416" stroke-miterlimit="10"/>
<path d="M243.531 61.6177C224.728 47.7492 216.62 58.322 197.816 44.4535C179.012 30.585 187.12 20.0122 168.322 6.1477C149.524 -7.7168 141.411 2.85202 122.607 -11.0165C103.803 -24.885 111.912 -35.4578 93.1079 -49.3263C74.3043 -63.1948 66.1963 -52.6219 47.3873 -66.4944C28.5783 -80.3669 36.6917 -90.9357 17.8881 -104.804" stroke="#A0A3BD" stroke-opacity="0.3" stroke-width="1.11416" stroke-miterlimit="10"/>
<path d="M294.767 -5.14233C275.963 -19.0108 267.855 -8.43801 249.051 -22.3065C230.248 -36.175 238.356 -46.7478 219.558 -60.6123C200.759 -74.4768 192.646 -63.908 173.842 -77.7765C155.039 -91.645 163.147 -102.218 144.343 -116.086C125.54 -129.955 117.432 -119.382 98.6226 -133.254C79.8136 -147.127 87.9271 -157.696 69.1235 -171.564" stroke="#A0A3BD" stroke-opacity="0.3" stroke-width="1.11416" stroke-miterlimit="10"/>
<path d="M193.873 128.318C175.069 114.45 166.961 125.022 148.158 111.154C129.354 97.2855 137.462 86.7126 118.664 72.8481C99.8659 58.9836 91.7524 69.5525 72.9488 55.684C54.1452 41.8155 62.2533 31.2427 43.4497 17.3742C24.6461 3.50568 16.5381 14.0785 -2.27094 0.206016C-21.0799 -13.6665 -12.9665 -24.2353 -31.7701 -38.1038" stroke="#A0A3BD" stroke-opacity="0.3" stroke-width="1.11416" stroke-miterlimit="10"/>
<path d="M288.47 -0.195801C269.667 -14.0643 261.559 -3.49148 242.755 -17.36C223.951 -31.2285 232.059 -41.8013 213.261 -55.6658C194.463 -69.5303 186.35 -58.9615 167.546 -72.83C148.742 -86.6984 156.85 -97.2713 138.047 -111.14C119.243 -125.008 111.135 -114.435 92.3262 -128.308C73.5172 -142.18 81.6307 -152.749 62.8271 -166.618" stroke="#A0A3BD" stroke-opacity="0.3" stroke-width="1.11416" stroke-miterlimit="10"/>
<path d="M239.018 66.2778C220.214 52.4093 212.106 62.9822 193.303 49.1137C174.499 35.2452 182.607 24.6724 163.809 10.8079C145.011 -3.05665 136.897 7.51218 118.094 -6.35631C99.2903 -20.2248 107.398 -30.7976 88.5947 -44.6661C69.7911 -58.5346 61.6831 -47.9618 42.8741 -61.8343C24.0651 -75.7068 32.1785 -86.2756 13.3749 -100.144" stroke="#A0A3BD" stroke-opacity="0.3" stroke-width="1.11416" stroke-miterlimit="10"/>
<path d="M264.276 33.958C245.472 20.0895 237.364 30.6623 218.561 16.7938C199.757 2.92535 207.865 -7.64747 189.067 -21.512C170.269 -35.3765 162.155 -24.8076 143.352 -38.6761C124.548 -52.5446 132.656 -63.1174 113.853 -76.9859C95.049 -90.8544 86.9409 -80.2816 68.1319 -94.1541C49.3229 -108.027 57.4364 -118.595 38.6328 -132.464" stroke="#A0A3BD" stroke-opacity="0.3" stroke-width="1.11416" stroke-miterlimit="10"/>
<path d="M278.795 11.2327C259.991 -2.63583 251.883 7.93699 233.08 -5.9315C214.276 -19.8 222.384 -30.3728 203.586 -44.2373C184.788 -58.1018 176.674 -47.533 157.871 -61.4015C139.067 -75.27 147.175 -85.8428 128.372 -99.7113C109.568 -113.58 101.46 -103.007 82.6509 -116.879C63.8419 -130.752 71.9554 -141.321 53.1518 -155.189" stroke="#A0A3BD" stroke-opacity="0.3" stroke-width="1.11416" stroke-miterlimit="10"/>
<path d="M229.343 77.7056C210.54 63.8371 202.432 74.4099 183.628 60.5414C164.824 46.6729 172.932 36.1001 154.134 22.2356C135.336 8.37109 127.223 18.9399 108.419 5.07142C89.6155 -8.79707 97.7235 -19.3699 78.9199 -33.2384C60.1163 -47.1069 52.0083 -36.5341 33.1993 -50.4065C14.3903 -64.279 22.5037 -74.8478 3.70015 -88.7163" stroke="#A0A3BD" stroke-opacity="0.3" stroke-width="1.11416" stroke-miterlimit="10"/>
<path d="M254.808 45.1584C236.005 31.29 227.896 41.8628 209.093 27.9943C190.289 14.1258 198.397 3.55297 179.599 -10.3115C160.801 -24.176 152.687 -13.6072 133.884 -27.4757C115.08 -41.3442 123.188 -51.917 104.385 -65.7855C85.5812 -79.654 77.4731 -69.0812 58.6641 -82.9537C39.8551 -96.8261 47.9686 -107.395 29.165 -121.263" stroke="#A0A3BD" stroke-opacity="0.3" stroke-width="1.11416" stroke-miterlimit="10"/>
<path d="M205.148 111.859C186.345 97.9909 178.237 108.564 159.433 94.6952C140.63 80.8267 148.738 70.2539 129.939 56.3894C111.141 42.5249 103.028 53.0937 84.2242 39.2252C65.4206 25.3567 73.5287 14.7839 54.7251 0.915436C35.9215 -12.9531 27.8135 -2.38024 9.00445 -16.2527C-9.80455 -30.1252 -1.69108 -40.694 -20.4947 -54.5625" stroke="#A0A3BD" stroke-opacity="0.3" stroke-width="1.11416" stroke-miterlimit="10"/>
</g>
<defs>
<clipPath id="clip0_174_3232">
<rect width="155" height="106" fill="white"/>
</clipPath>
</defs>
</svg>
