<svg width="169" height="107" viewBox="0 0 169 107" fill="none" xmlns="http://www.w3.org/2000/svg">
<rect x="116" width="2.91892" height="2.92561" rx="1.34409" fill="white" fill-opacity="0.2"/>
<rect x="127.676" width="2.91892" height="2.92561" rx="1.34409" fill="white" fill-opacity="0.2"/>
<rect x="139.351" width="2.91892" height="2.92561" rx="1.34409" fill="white" fill-opacity="0.2"/>
<rect x="151.027" width="2.91892" height="2.92561" rx="1.34409" fill="white" fill-opacity="0.2"/>
<rect x="162.703" width="2.91892" height="2.92561" rx="1.34409" fill="white" fill-opacity="0.2"/>
<rect x="116" y="11.7024" width="2.91892" height="2.92561" rx="1.34409" fill="white" fill-opacity="0.2"/>
<rect x="127.676" y="11.7024" width="2.91892" height="2.92561" rx="1.34409" fill="white" fill-opacity="0.2"/>
<rect x="139.351" y="11.7024" width="2.91892" height="2.92561" rx="1.34409" fill="white" fill-opacity="0.2"/>
<rect x="151.027" y="11.7024" width="2.91892" height="2.92561" rx="1.34409" fill="white" fill-opacity="0.2"/>
<rect x="162.703" y="11.7024" width="2.91892" height="2.92561" rx="1.34409" fill="white" fill-opacity="0.2"/>
<rect x="116" y="23.4048" width="2.91892" height="2.92562" rx="1.34409" fill="white" fill-opacity="0.2"/>
<rect x="127.676" y="23.4048" width="2.91892" height="2.92562" rx="1.34409" fill="white" fill-opacity="0.2"/>
<rect x="139.351" y="23.4048" width="2.91892" height="2.92562" rx="1.34409" fill="white" fill-opacity="0.2"/>
<rect x="151.027" y="23.4048" width="2.91892" height="2.92562" rx="1.34409" fill="white" fill-opacity="0.2"/>
<rect x="162.703" y="23.4048" width="2.91892" height="2.92562" rx="1.34409" fill="white" fill-opacity="0.2"/>
<rect x="116" y="35.1072" width="2.91892" height="2.92561" rx="1.34409" fill="white" fill-opacity="0.2"/>
<rect x="127.676" y="35.1072" width="2.91892" height="2.92561" rx="1.34409" fill="white" fill-opacity="0.2"/>
<rect x="139.351" y="35.1072" width="2.91892" height="2.92561" rx="1.34409" fill="white" fill-opacity="0.2"/>
<rect x="151.027" y="35.1072" width="2.91892" height="2.92561" rx="1.34409" fill="white" fill-opacity="0.2"/>
<rect x="162.703" y="35.1072" width="2.91892" height="2.92561" rx="1.34409" fill="white" fill-opacity="0.2"/>
<rect x="116" y="46.8098" width="2.91892" height="2.92562" rx="1.34409" fill="white" fill-opacity="0.2"/>
<rect x="127.676" y="46.8098" width="2.91892" height="2.92562" rx="1.34409" fill="white" fill-opacity="0.2"/>
<rect x="139.351" y="46.8098" width="2.91892" height="2.92562" rx="1.34409" fill="white" fill-opacity="0.2"/>
<rect x="151.027" y="46.8098" width="2.91892" height="2.92562" rx="1.34409" fill="white" fill-opacity="0.2"/>
<rect x="162.703" y="46.8098" width="2.91892" height="2.92562" rx="1.34409" fill="white" fill-opacity="0.2"/>
<rect x="116" y="58.5125" width="2.91892" height="2.92562" rx="1.34409" fill="white" fill-opacity="0.2"/>
<rect x="127.676" y="58.5125" width="2.91892" height="2.92562" rx="1.34409" fill="white" fill-opacity="0.2"/>
<rect x="139.351" y="58.5125" width="2.91892" height="2.92562" rx="1.34409" fill="white" fill-opacity="0.2"/>
<rect x="151.027" y="58.5125" width="2.91892" height="2.92562" rx="1.34409" fill="white" fill-opacity="0.2"/>
<rect x="162.703" y="58.5125" width="2.91892" height="2.92562" rx="1.34409" fill="white" fill-opacity="0.2"/>
<rect x="116" y="70.2148" width="2.91892" height="2.92561" rx="1.34409" fill="white" fill-opacity="0.2"/>
<rect x="116" y="81.5015" width="2.91892" height="2.92561" rx="1.34409" fill="white" fill-opacity="0.2"/>
<rect x="116" y="92.7881" width="2.91892" height="2.92562" rx="1.34409" fill="white" fill-opacity="0.2"/>
<rect x="116" y="104.074" width="2.91892" height="2.92561" rx="1.34409" fill="white" fill-opacity="0.2"/>
<rect x="127.676" y="70.2148" width="2.91892" height="2.92561" rx="1.34409" fill="white" fill-opacity="0.2"/>
<rect x="127.676" y="81.5015" width="2.91892" height="2.92561" rx="1.34409" fill="white" fill-opacity="0.2"/>
<rect x="127.676" y="92.7881" width="2.91892" height="2.92562" rx="1.34409" fill="white" fill-opacity="0.2"/>
<rect x="127.676" y="104.074" width="2.91892" height="2.92561" rx="1.34409" fill="white" fill-opacity="0.2"/>
<rect x="139.351" y="70.2148" width="2.91892" height="2.92561" rx="1.34409" fill="white" fill-opacity="0.2"/>
<rect x="139.351" y="81.5015" width="2.91892" height="2.92561" rx="1.34409" fill="white" fill-opacity="0.2"/>
<rect x="139.351" y="92.7881" width="2.91892" height="2.92562" rx="1.34409" fill="white" fill-opacity="0.2"/>
<rect x="139.351" y="104.074" width="2.91892" height="2.92561" rx="1.34409" fill="white" fill-opacity="0.2"/>
<rect x="151.027" y="70.2148" width="2.91892" height="2.92561" rx="1.34409" fill="white" fill-opacity="0.2"/>
<rect x="151.027" y="81.5015" width="2.91892" height="2.92561" rx="1.34409" fill="white" fill-opacity="0.2"/>
<rect x="151.027" y="92.7881" width="2.91892" height="2.92562" rx="1.34409" fill="white" fill-opacity="0.2"/>
<rect x="151.027" y="104.074" width="2.91892" height="2.92561" rx="1.34409" fill="white" fill-opacity="0.2"/>
<rect x="162.703" y="70.2148" width="2.91892" height="2.92561" rx="1.34409" fill="white" fill-opacity="0.2"/>
<rect x="162.703" y="81.5015" width="2.91892" height="2.92561" rx="1.34409" fill="white" fill-opacity="0.2"/>
<rect x="162.703" y="92.7881" width="2.91892" height="2.92562" rx="1.34409" fill="white" fill-opacity="0.2"/>
<rect x="162.703" y="104.074" width="2.91892" height="2.92561" rx="1.34409" fill="white" fill-opacity="0.2"/>
<rect width="2.91892" height="2.92561" rx="1.34409" fill="white" fill-opacity="0.2"/>
<rect x="11.6758" width="2.91892" height="2.92561" rx="1.34409" fill="white" fill-opacity="0.2"/>
<rect x="23.3511" width="2.91892" height="2.92561" rx="1.34409" fill="white" fill-opacity="0.2"/>
<rect x="35.0273" width="2.91892" height="2.92561" rx="1.34409" fill="white" fill-opacity="0.2"/>
<rect x="46.7026" width="2.91892" height="2.92561" rx="1.34409" fill="white" fill-opacity="0.2"/>
<rect x="58.3784" width="2.91892" height="2.92561" rx="1.34409" fill="white" fill-opacity="0.2"/>
<rect x="70.0542" width="2.91892" height="2.92561" rx="1.34409" fill="white" fill-opacity="0.2"/>
<rect x="81.73" width="2.91892" height="2.92561" rx="1.34409" fill="white" fill-opacity="0.2"/>
<rect x="93.4053" width="2.91892" height="2.92561" rx="1.34409" fill="white" fill-opacity="0.2"/>
<rect x="105.081" width="2.91892" height="2.92561" rx="1.34409" fill="white" fill-opacity="0.2"/>
<rect y="11.7024" width="2.91892" height="2.92561" rx="1.34409" fill="white" fill-opacity="0.2"/>
<rect x="11.6758" y="11.7024" width="2.91892" height="2.92561" rx="1.34409" fill="white" fill-opacity="0.2"/>
<rect x="23.3511" y="11.7024" width="2.91892" height="2.92561" rx="1.34409" fill="white" fill-opacity="0.2"/>
<rect x="35.0273" y="11.7024" width="2.91892" height="2.92561" rx="1.34409" fill="white" fill-opacity="0.2"/>
<rect x="46.7026" y="11.7024" width="2.91892" height="2.92561" rx="1.34409" fill="white" fill-opacity="0.2"/>
<rect x="58.3784" y="11.7024" width="2.91892" height="2.92561" rx="1.34409" fill="white" fill-opacity="0.2"/>
<rect x="70.0542" y="11.7024" width="2.91892" height="2.92561" rx="1.34409" fill="white" fill-opacity="0.2"/>
<rect x="81.73" y="11.7024" width="2.91892" height="2.92561" rx="1.34409" fill="white" fill-opacity="0.2"/>
<rect x="93.4053" y="11.7024" width="2.91892" height="2.92561" rx="1.34409" fill="white" fill-opacity="0.2"/>
<rect x="105.081" y="11.7024" width="2.91892" height="2.92561" rx="1.34409" fill="white" fill-opacity="0.2"/>
<rect y="23.4048" width="2.91892" height="2.92562" rx="1.34409" fill="white" fill-opacity="0.2"/>
<rect x="11.6758" y="23.4048" width="2.91892" height="2.92562" rx="1.34409" fill="white" fill-opacity="0.2"/>
<rect x="23.3511" y="23.4048" width="2.91892" height="2.92562" rx="1.34409" fill="white" fill-opacity="0.2"/>
<rect x="35.0273" y="23.4048" width="2.91892" height="2.92562" rx="1.34409" fill="white" fill-opacity="0.2"/>
<rect x="46.7026" y="23.4048" width="2.91892" height="2.92562" rx="1.34409" fill="white" fill-opacity="0.2"/>
<rect x="58.3784" y="23.4048" width="2.91892" height="2.92562" rx="1.34409" fill="white" fill-opacity="0.2"/>
<rect x="70.0542" y="23.4048" width="2.91892" height="2.92562" rx="1.34409" fill="white" fill-opacity="0.2"/>
<rect x="81.73" y="23.4048" width="2.91892" height="2.92562" rx="1.34409" fill="white" fill-opacity="0.2"/>
<rect x="93.4053" y="23.4048" width="2.91892" height="2.92562" rx="1.34409" fill="white" fill-opacity="0.2"/>
<rect x="105.081" y="23.4048" width="2.91892" height="2.92562" rx="1.34409" fill="white" fill-opacity="0.2"/>
<rect y="35.1072" width="2.91892" height="2.92561" rx="1.34409" fill="white" fill-opacity="0.2"/>
<rect x="11.6758" y="35.1072" width="2.91892" height="2.92561" rx="1.34409" fill="white" fill-opacity="0.2"/>
<rect x="23.3511" y="35.1072" width="2.91892" height="2.92561" rx="1.34409" fill="white" fill-opacity="0.2"/>
<rect x="35.0273" y="35.1072" width="2.91892" height="2.92561" rx="1.34409" fill="white" fill-opacity="0.2"/>
<rect x="46.7026" y="35.1072" width="2.91892" height="2.92561" rx="1.34409" fill="white" fill-opacity="0.2"/>
<rect x="58.3784" y="35.1072" width="2.91892" height="2.92561" rx="1.34409" fill="white" fill-opacity="0.2"/>
<rect x="70.0542" y="35.1072" width="2.91892" height="2.92561" rx="1.34409" fill="white" fill-opacity="0.2"/>
<rect x="81.73" y="35.1072" width="2.91892" height="2.92561" rx="1.34409" fill="white" fill-opacity="0.2"/>
<rect x="93.4053" y="35.1072" width="2.91892" height="2.92561" rx="1.34409" fill="white" fill-opacity="0.2"/>
<rect x="105.081" y="35.1072" width="2.91892" height="2.92561" rx="1.34409" fill="white" fill-opacity="0.2"/>
<rect y="46.8098" width="2.91892" height="2.92562" rx="1.34409" fill="white" fill-opacity="0.2"/>
<rect x="11.6758" y="46.8098" width="2.91892" height="2.92562" rx="1.34409" fill="white" fill-opacity="0.2"/>
<rect x="23.3511" y="46.8098" width="2.91892" height="2.92562" rx="1.34409" fill="white" fill-opacity="0.2"/>
<rect x="35.0273" y="46.8098" width="2.91892" height="2.92562" rx="1.34409" fill="white" fill-opacity="0.2"/>
<rect x="46.7026" y="46.8098" width="2.91892" height="2.92562" rx="1.34409" fill="white" fill-opacity="0.2"/>
<rect x="58.3784" y="46.8098" width="2.91892" height="2.92562" rx="1.34409" fill="white" fill-opacity="0.2"/>
<rect x="70.0542" y="46.8098" width="2.91892" height="2.92562" rx="1.34409" fill="white" fill-opacity="0.2"/>
<rect x="81.73" y="46.8098" width="2.91892" height="2.92562" rx="1.34409" fill="white" fill-opacity="0.2"/>
<rect x="93.4053" y="46.8098" width="2.91892" height="2.92562" rx="1.34409" fill="white" fill-opacity="0.2"/>
<rect x="105.081" y="46.8098" width="2.91892" height="2.92562" rx="1.34409" fill="white" fill-opacity="0.2"/>
<rect y="58.5125" width="2.91892" height="2.92562" rx="1.34409" fill="white" fill-opacity="0.2"/>
<rect x="11.6758" y="58.5125" width="2.91892" height="2.92562" rx="1.34409" fill="white" fill-opacity="0.2"/>
<rect x="23.3511" y="58.5125" width="2.91892" height="2.92562" rx="1.34409" fill="white" fill-opacity="0.2"/>
<rect x="35.0273" y="58.5125" width="2.91892" height="2.92562" rx="1.34409" fill="white" fill-opacity="0.2"/>
<rect x="46.7026" y="58.5125" width="2.91892" height="2.92562" rx="1.34409" fill="white" fill-opacity="0.2"/>
<rect x="58.3784" y="58.5125" width="2.91892" height="2.92562" rx="1.34409" fill="white" fill-opacity="0.2"/>
<rect x="70.0542" y="58.5125" width="2.91892" height="2.92562" rx="1.34409" fill="white" fill-opacity="0.2"/>
<rect x="81.73" y="58.5125" width="2.91892" height="2.92562" rx="1.34409" fill="white" fill-opacity="0.2"/>
<rect x="93.4053" y="58.5125" width="2.91892" height="2.92562" rx="1.34409" fill="white" fill-opacity="0.2"/>
<rect x="105.081" y="58.5125" width="2.91892" height="2.92562" rx="1.34409" fill="white" fill-opacity="0.2"/>
<rect y="70.2148" width="2.91892" height="2.92561" rx="1.34409" fill="white" fill-opacity="0.2"/>
<rect y="81.5015" width="2.91892" height="2.92561" rx="1.34409" fill="white" fill-opacity="0.2"/>
<rect y="92.7881" width="2.91892" height="2.92562" rx="1.34409" fill="white" fill-opacity="0.2"/>
<rect y="104.074" width="2.91892" height="2.92561" rx="1.34409" fill="white" fill-opacity="0.2"/>
<rect x="11.6758" y="70.2148" width="2.91892" height="2.92561" rx="1.34409" fill="white" fill-opacity="0.2"/>
<rect x="11.6758" y="81.5015" width="2.91892" height="2.92561" rx="1.34409" fill="white" fill-opacity="0.2"/>
<rect x="11.6758" y="92.7881" width="2.91892" height="2.92562" rx="1.34409" fill="white" fill-opacity="0.2"/>
<rect x="11.6758" y="104.074" width="2.91892" height="2.92561" rx="1.34409" fill="white" fill-opacity="0.2"/>
<rect x="23.3511" y="70.2148" width="2.91892" height="2.92561" rx="1.34409" fill="white" fill-opacity="0.2"/>
<rect x="23.3511" y="81.5015" width="2.91892" height="2.92561" rx="1.34409" fill="white" fill-opacity="0.2"/>
<rect x="23.3511" y="92.7881" width="2.91892" height="2.92562" rx="1.34409" fill="white" fill-opacity="0.2"/>
<rect x="23.3511" y="104.074" width="2.91892" height="2.92561" rx="1.34409" fill="white" fill-opacity="0.2"/>
<rect x="35.0273" y="70.2148" width="2.91892" height="2.92561" rx="1.34409" fill="white" fill-opacity="0.2"/>
<rect x="35.0273" y="81.5015" width="2.91892" height="2.92561" rx="1.34409" fill="white" fill-opacity="0.2"/>
<rect x="35.0273" y="92.7881" width="2.91892" height="2.92562" rx="1.34409" fill="white" fill-opacity="0.2"/>
<rect x="35.0273" y="104.074" width="2.91892" height="2.92561" rx="1.34409" fill="white" fill-opacity="0.2"/>
<rect x="46.7026" y="70.2148" width="2.91892" height="2.92561" rx="1.34409" fill="white" fill-opacity="0.2"/>
<rect x="46.7026" y="81.5015" width="2.91892" height="2.92561" rx="1.34409" fill="white" fill-opacity="0.2"/>
<rect x="46.7026" y="92.7881" width="2.91892" height="2.92562" rx="1.34409" fill="white" fill-opacity="0.2"/>
<rect x="46.7026" y="104.074" width="2.91892" height="2.92561" rx="1.34409" fill="white" fill-opacity="0.2"/>
<rect x="58.3784" y="70.2148" width="2.91892" height="2.92561" rx="1.34409" fill="white" fill-opacity="0.2"/>
<rect x="58.3784" y="81.5015" width="2.91892" height="2.92561" rx="1.34409" fill="white" fill-opacity="0.2"/>
<rect x="58.3784" y="92.7881" width="2.91892" height="2.92562" rx="1.34409" fill="white" fill-opacity="0.2"/>
<rect x="58.3784" y="104.074" width="2.91892" height="2.92561" rx="1.34409" fill="white" fill-opacity="0.2"/>
<rect x="70.0542" y="70.2148" width="2.91892" height="2.92561" rx="1.34409" fill="white" fill-opacity="0.2"/>
<rect x="70.0542" y="81.5015" width="2.91892" height="2.92561" rx="1.34409" fill="white" fill-opacity="0.2"/>
<rect x="70.0542" y="92.7881" width="2.91892" height="2.92562" rx="1.34409" fill="white" fill-opacity="0.2"/>
<rect x="70.0542" y="104.074" width="2.91892" height="2.92561" rx="1.34409" fill="white" fill-opacity="0.2"/>
<rect x="81.73" y="70.2148" width="2.91892" height="2.92561" rx="1.34409" fill="white" fill-opacity="0.2"/>
<rect x="81.73" y="81.5015" width="2.91892" height="2.92561" rx="1.34409" fill="white" fill-opacity="0.2"/>
<rect x="81.73" y="92.7881" width="2.91892" height="2.92562" rx="1.34409" fill="white" fill-opacity="0.2"/>
<rect x="81.73" y="104.074" width="2.91892" height="2.92561" rx="1.34409" fill="white" fill-opacity="0.2"/>
<rect x="93.4053" y="70.2148" width="2.91892" height="2.92561" rx="1.34409" fill="white" fill-opacity="0.2"/>
<rect x="93.4053" y="81.5015" width="2.91892" height="2.92561" rx="1.34409" fill="white" fill-opacity="0.2"/>
<rect x="93.4053" y="92.7881" width="2.91892" height="2.92562" rx="1.34409" fill="white" fill-opacity="0.2"/>
<rect x="93.4053" y="104.074" width="2.91892" height="2.92561" rx="1.34409" fill="white" fill-opacity="0.2"/>
<rect x="105.081" y="70.2148" width="2.91892" height="2.92561" rx="1.34409" fill="white" fill-opacity="0.2"/>
<rect x="105.081" y="81.5015" width="2.91892" height="2.92561" rx="1.34409" fill="white" fill-opacity="0.2"/>
<rect x="105.081" y="92.7881" width="2.91892" height="2.92562" rx="1.34409" fill="white" fill-opacity="0.2"/>
<rect x="105.081" y="104.074" width="2.91892" height="2.92561" rx="1.34409" fill="white" fill-opacity="0.2"/>
</svg>
