<svg width="199" height="196" viewBox="0 0 199 196" fill="none" xmlns="http://www.w3.org/2000/svg">
<rect width="5.35332" height="5.35332" rx="1.34409" fill="white" fill-opacity="0.2"/>
<rect x="21.4136" width="5.35332" height="5.35332" rx="1.34409" fill="white" fill-opacity="0.2"/>
<rect x="42.8262" width="5.35332" height="5.35332" rx="1.34409" fill="white" fill-opacity="0.2"/>
<rect x="64.2402" width="5.35332" height="5.35332" rx="1.34409" fill="white" fill-opacity="0.2"/>
<rect x="85.6528" width="5.35332" height="5.35332" rx="1.34409" fill="white" fill-opacity="0.2"/>
<rect x="107.066" width="5.35332" height="5.35332" rx="1.34409" fill="white" fill-opacity="0.2"/>
<rect x="128.48" width="5.35332" height="5.35332" rx="1.34409" fill="white" fill-opacity="0.2"/>
<rect x="149.894" width="5.35332" height="5.35332" rx="1.34409" fill="white" fill-opacity="0.2"/>
<rect x="171.306" width="5.35332" height="5.35332" rx="1.34409" fill="white" fill-opacity="0.2"/>
<rect x="192.719" width="5.35332" height="5.35332" rx="1.34409" fill="white" fill-opacity="0.2"/>
<rect y="21.4131" width="5.35332" height="5.35332" rx="1.34409" fill="white" fill-opacity="0.2"/>
<rect x="21.4136" y="21.4131" width="5.35332" height="5.35332" rx="1.34409" fill="white" fill-opacity="0.2"/>
<rect x="42.8262" y="21.4131" width="5.35332" height="5.35332" rx="1.34409" fill="white" fill-opacity="0.2"/>
<rect x="64.2402" y="21.4131" width="5.35332" height="5.35332" rx="1.34409" fill="white" fill-opacity="0.2"/>
<rect x="85.6528" y="21.4131" width="5.35332" height="5.35332" rx="1.34409" fill="white" fill-opacity="0.2"/>
<rect x="107.066" y="21.4131" width="5.35332" height="5.35332" rx="1.34409" fill="white" fill-opacity="0.2"/>
<rect x="128.48" y="21.4131" width="5.35332" height="5.35332" rx="1.34409" fill="white" fill-opacity="0.2"/>
<rect x="149.894" y="21.4131" width="5.35332" height="5.35332" rx="1.34409" fill="white" fill-opacity="0.2"/>
<rect x="171.306" y="21.4131" width="5.35332" height="5.35332" rx="1.34409" fill="white" fill-opacity="0.2"/>
<rect x="192.719" y="21.4131" width="5.35332" height="5.35332" rx="1.34409" fill="white" fill-opacity="0.2"/>
<rect y="42.8264" width="5.35332" height="5.35332" rx="1.34409" fill="white" fill-opacity="0.2"/>
<rect x="21.4136" y="42.8264" width="5.35332" height="5.35332" rx="1.34409" fill="white" fill-opacity="0.2"/>
<rect x="42.8262" y="42.8264" width="5.35332" height="5.35332" rx="1.34409" fill="white" fill-opacity="0.2"/>
<rect x="64.2402" y="42.8264" width="5.35332" height="5.35332" rx="1.34409" fill="white" fill-opacity="0.2"/>
<rect x="85.6528" y="42.8264" width="5.35332" height="5.35332" rx="1.34409" fill="white" fill-opacity="0.2"/>
<rect x="107.066" y="42.8264" width="5.35332" height="5.35332" rx="1.34409" fill="white" fill-opacity="0.2"/>
<rect x="128.48" y="42.8264" width="5.35332" height="5.35332" rx="1.34409" fill="white" fill-opacity="0.2"/>
<rect x="149.894" y="42.8264" width="5.35332" height="5.35332" rx="1.34409" fill="white" fill-opacity="0.2"/>
<rect x="171.306" y="42.8264" width="5.35332" height="5.35332" rx="1.34409" fill="white" fill-opacity="0.2"/>
<rect x="192.719" y="42.8264" width="5.35332" height="5.35332" rx="1.34409" fill="white" fill-opacity="0.2"/>
<rect y="64.2395" width="5.35332" height="5.35332" rx="1.34409" fill="white" fill-opacity="0.2"/>
<rect x="21.4136" y="64.2395" width="5.35332" height="5.35332" rx="1.34409" fill="white" fill-opacity="0.2"/>
<rect x="42.8262" y="64.2395" width="5.35332" height="5.35332" rx="1.34409" fill="white" fill-opacity="0.2"/>
<rect x="64.2402" y="64.2395" width="5.35332" height="5.35332" rx="1.34409" fill="white" fill-opacity="0.2"/>
<rect x="85.6528" y="64.2395" width="5.35332" height="5.35332" rx="1.34409" fill="white" fill-opacity="0.2"/>
<rect x="107.066" y="64.2395" width="5.35332" height="5.35332" rx="1.34409" fill="white" fill-opacity="0.2"/>
<rect x="128.48" y="64.2395" width="5.35332" height="5.35332" rx="1.34409" fill="white" fill-opacity="0.2"/>
<rect x="149.894" y="64.2395" width="5.35332" height="5.35332" rx="1.34409" fill="white" fill-opacity="0.2"/>
<rect x="171.306" y="64.2395" width="5.35332" height="5.35332" rx="1.34409" fill="white" fill-opacity="0.2"/>
<rect x="192.719" y="64.2395" width="5.35332" height="5.35332" rx="1.34409" fill="white" fill-opacity="0.2"/>
<rect y="85.6533" width="5.35332" height="5.35332" rx="1.34409" fill="white" fill-opacity="0.2"/>
<rect x="21.4136" y="85.6533" width="5.35332" height="5.35332" rx="1.34409" fill="white" fill-opacity="0.2"/>
<rect x="42.8262" y="85.6533" width="5.35332" height="5.35332" rx="1.34409" fill="white" fill-opacity="0.2"/>
<rect x="64.2402" y="85.6533" width="5.35332" height="5.35332" rx="1.34409" fill="white" fill-opacity="0.2"/>
<rect x="85.6528" y="85.6533" width="5.35332" height="5.35332" rx="1.34409" fill="white" fill-opacity="0.2"/>
<rect x="107.066" y="85.6533" width="5.35332" height="5.35332" rx="1.34409" fill="white" fill-opacity="0.2"/>
<rect x="128.48" y="85.6533" width="5.35332" height="5.35332" rx="1.34409" fill="white" fill-opacity="0.2"/>
<rect x="149.894" y="85.6533" width="5.35332" height="5.35332" rx="1.34409" fill="white" fill-opacity="0.2"/>
<rect x="171.306" y="85.6533" width="5.35332" height="5.35332" rx="1.34409" fill="white" fill-opacity="0.2"/>
<rect x="192.719" y="85.6533" width="5.35332" height="5.35332" rx="1.34409" fill="white" fill-opacity="0.2"/>
<rect y="107.066" width="5.35332" height="5.35332" rx="1.34409" fill="white" fill-opacity="0.2"/>
<rect x="21.4136" y="107.066" width="5.35332" height="5.35332" rx="1.34409" fill="white" fill-opacity="0.2"/>
<rect x="42.8262" y="107.066" width="5.35332" height="5.35332" rx="1.34409" fill="white" fill-opacity="0.2"/>
<rect x="64.2402" y="107.066" width="5.35332" height="5.35332" rx="1.34409" fill="white" fill-opacity="0.2"/>
<rect x="85.6528" y="107.066" width="5.35332" height="5.35332" rx="1.34409" fill="white" fill-opacity="0.2"/>
<rect x="107.066" y="107.066" width="5.35332" height="5.35332" rx="1.34409" fill="white" fill-opacity="0.2"/>
<rect x="128.48" y="107.066" width="5.35332" height="5.35332" rx="1.34409" fill="white" fill-opacity="0.2"/>
<rect x="149.894" y="107.066" width="5.35332" height="5.35332" rx="1.34409" fill="white" fill-opacity="0.2"/>
<rect x="171.306" y="107.066" width="5.35332" height="5.35332" rx="1.34409" fill="white" fill-opacity="0.2"/>
<rect x="192.719" y="107.066" width="5.35332" height="5.35332" rx="1.34409" fill="white" fill-opacity="0.2"/>
<rect y="128.48" width="5.35332" height="5.35332" rx="1.34409" fill="white" fill-opacity="0.2"/>
<rect y="149.132" width="5.35332" height="5.35332" rx="1.34409" fill="white" fill-opacity="0.2"/>
<rect y="169.784" width="5.35332" height="5.35332" rx="1.34409" fill="white" fill-opacity="0.2"/>
<rect y="190.436" width="5.35332" height="5.35332" rx="1.34409" fill="white" fill-opacity="0.2"/>
<rect x="21.4136" y="128.48" width="5.35332" height="5.35332" rx="1.34409" fill="white" fill-opacity="0.2"/>
<rect x="21.4136" y="149.132" width="5.35332" height="5.35332" rx="1.34409" fill="white" fill-opacity="0.2"/>
<rect x="21.4136" y="169.784" width="5.35332" height="5.35332" rx="1.34409" fill="white" fill-opacity="0.2"/>
<rect x="21.4136" y="190.436" width="5.35332" height="5.35332" rx="1.34409" fill="white" fill-opacity="0.2"/>
<rect x="42.8262" y="128.48" width="5.35332" height="5.35332" rx="1.34409" fill="white" fill-opacity="0.2"/>
<rect x="42.8262" y="149.132" width="5.35332" height="5.35332" rx="1.34409" fill="white" fill-opacity="0.2"/>
<rect x="42.8262" y="169.784" width="5.35332" height="5.35332" rx="1.34409" fill="white" fill-opacity="0.2"/>
<rect x="42.8262" y="190.436" width="5.35332" height="5.35332" rx="1.34409" fill="white" fill-opacity="0.2"/>
<rect x="64.2402" y="128.48" width="5.35332" height="5.35332" rx="1.34409" fill="white" fill-opacity="0.2"/>
<rect x="64.2402" y="149.132" width="5.35332" height="5.35332" rx="1.34409" fill="white" fill-opacity="0.2"/>
<rect x="64.2402" y="169.784" width="5.35332" height="5.35332" rx="1.34409" fill="white" fill-opacity="0.2"/>
<rect x="64.2402" y="190.436" width="5.35332" height="5.35332" rx="1.34409" fill="white" fill-opacity="0.2"/>
<rect x="85.6528" y="128.48" width="5.35332" height="5.35332" rx="1.34409" fill="white" fill-opacity="0.2"/>
<rect x="85.6528" y="149.132" width="5.35332" height="5.35332" rx="1.34409" fill="white" fill-opacity="0.2"/>
<rect x="85.6528" y="169.784" width="5.35332" height="5.35332" rx="1.34409" fill="white" fill-opacity="0.2"/>
<rect x="85.6528" y="190.436" width="5.35332" height="5.35332" rx="1.34409" fill="white" fill-opacity="0.2"/>
<rect x="107.066" y="128.48" width="5.35332" height="5.35332" rx="1.34409" fill="white" fill-opacity="0.2"/>
<rect x="107.066" y="149.132" width="5.35332" height="5.35332" rx="1.34409" fill="white" fill-opacity="0.2"/>
<rect x="107.066" y="169.784" width="5.35332" height="5.35332" rx="1.34409" fill="white" fill-opacity="0.2"/>
<rect x="107.066" y="190.436" width="5.35332" height="5.35332" rx="1.34409" fill="white" fill-opacity="0.2"/>
<rect x="128.48" y="128.48" width="5.35332" height="5.35332" rx="1.34409" fill="white" fill-opacity="0.2"/>
<rect x="128.48" y="149.132" width="5.35332" height="5.35332" rx="1.34409" fill="white" fill-opacity="0.2"/>
<rect x="128.48" y="169.784" width="5.35332" height="5.35332" rx="1.34409" fill="white" fill-opacity="0.2"/>
<rect x="128.48" y="190.436" width="5.35332" height="5.35332" rx="1.34409" fill="white" fill-opacity="0.2"/>
<rect x="149.894" y="128.48" width="5.35332" height="5.35332" rx="1.34409" fill="white" fill-opacity="0.2"/>
<rect x="149.894" y="149.132" width="5.35332" height="5.35332" rx="1.34409" fill="white" fill-opacity="0.2"/>
<rect x="149.894" y="169.784" width="5.35332" height="5.35332" rx="1.34409" fill="white" fill-opacity="0.2"/>
<rect x="149.894" y="190.436" width="5.35332" height="5.35332" rx="1.34409" fill="white" fill-opacity="0.2"/>
<rect x="171.306" y="128.48" width="5.35332" height="5.35332" rx="1.34409" fill="white" fill-opacity="0.2"/>
<rect x="171.306" y="149.132" width="5.35332" height="5.35332" rx="1.34409" fill="white" fill-opacity="0.2"/>
<rect x="171.306" y="169.784" width="5.35332" height="5.35332" rx="1.34409" fill="white" fill-opacity="0.2"/>
<rect x="171.306" y="190.436" width="5.35332" height="5.35332" rx="1.34409" fill="white" fill-opacity="0.2"/>
<rect x="192.719" y="128.48" width="5.35332" height="5.35332" rx="1.34409" fill="white" fill-opacity="0.2"/>
<rect x="192.719" y="149.132" width="5.35332" height="5.35332" rx="1.34409" fill="white" fill-opacity="0.2"/>
<rect x="192.719" y="169.784" width="5.35332" height="5.35332" rx="1.34409" fill="white" fill-opacity="0.2"/>
<rect x="192.719" y="190.436" width="5.35332" height="5.35332" rx="1.34409" fill="white" fill-opacity="0.2"/>
</svg>
